<svg width="29" height="38" viewBox="0 0 29 38" fill="none" xmlns="http://www.w3.org/2000/svg">
<path fill-rule="evenodd" clip-rule="evenodd" d="M5.57122 3.30747C5.57122 1.48658 7.0578 0 8.87869 0C10.6996 0 12.1862 1.48658 12.1862 3.30747V11.1516C12.7537 10.6941 13.4744 10.4196 14.2567 10.4196C15.8531 10.4196 17.1926 11.5623 17.4986 13.0711C18.0757 12.5811 18.8219 12.2849 19.6348 12.2849C21.1414 12.2849 22.4192 13.3026 22.8153 14.6854C23.4004 14.1637 24.1709 13.8458 25.0128 13.8458C26.8337 13.8458 28.3203 15.3324 28.3203 17.1533V30.8285C28.3203 31.3239 28.2082 31.7974 28.0117 32.2192L26.8135 34.8774L26.8133 34.8779C25.9589 36.7688 24.0787 37.9852 22.0022 37.9852H12.0134C11.7892 38.006 11.5628 38.0049 11.3389 37.9819C11.3373 37.9818 11.3357 37.9816 11.3341 37.9814C10.4558 37.8845 9.61515 37.4412 9.04244 36.6796C9.02617 36.658 9.01133 36.6353 8.99804 36.6117L0.63319 21.7801C-0.430922 20.325 -0.122014 18.2669 1.32091 17.1832C1.33017 17.1763 1.33962 17.1696 1.34925 17.1632C2.65778 16.2908 4.41892 16.449 5.57122 17.4559V3.30747ZM22.9422 17.1533C22.9422 16.0155 23.875 15.0827 25.0128 15.0827C26.1506 15.0827 27.0834 16.0155 27.0834 17.1533V30.8285C27.0834 31.1379 27.0131 31.4346 26.8893 31.6995C26.888 31.7021 26.8868 31.7047 26.8857 31.7073L25.6861 34.3686C25.0315 35.8174 23.5918 36.7483 22.0022 36.7483H11.9833C11.9622 36.7483 11.9412 36.7493 11.9202 36.7515C11.77 36.7669 11.6176 36.767 11.4674 36.7517C10.9237 36.6911 10.4104 36.4227 10.0541 35.9664L1.6917 21.1391C1.67847 21.1156 1.66371 21.093 1.64753 21.0715C0.969032 20.1681 1.15112 18.8695 2.04985 18.1828C3.0077 17.5556 4.36633 17.7914 5.05667 18.7093C5.05669 18.7094 5.05671 18.7094 5.05672 18.7094C5.05683 18.7095 5.05694 18.7097 5.05704 18.7098L5.69491 19.5603C5.85463 19.7733 6.1327 19.8601 6.38524 19.776C6.63778 19.6918 6.80812 19.4554 6.80812 19.1892V3.30747C6.80812 2.1697 7.74092 1.2369 8.87869 1.2369C10.0165 1.2369 10.9493 2.1697 10.9493 3.30747V13.7271C10.9493 14.0687 11.2261 14.3456 11.5677 14.3456C11.9093 14.3456 12.1862 14.0687 12.1862 13.7271C12.1862 12.5893 13.119 11.6565 14.2567 11.6565C15.3945 11.6565 16.3273 12.5893 16.3273 13.7271V15.5923C16.3273 15.9339 16.6042 16.2108 16.9457 16.2108C17.2873 16.2108 17.5642 15.9339 17.5642 15.5923C17.5642 14.4546 18.497 13.5218 19.6348 13.5218C20.7725 13.5218 21.7053 14.4546 21.7053 15.5923V17.1533C21.7053 17.4949 21.9822 17.7718 22.3238 17.7718C22.6653 17.7718 22.9422 17.4949 22.9422 17.1533Z" fill="#221F20" style="fill:#221F20;fill:color(display-p3 0.1333 0.1216 0.1255);fill-opacity:1;"/>
</svg>
