<svg width="40" height="55" viewBox="0 0 40 55" fill="none" xmlns="http://www.w3.org/2000/svg">
<path d="M36.0283 20.4492C33.8435 20.4492 32.0569 22.2358 32.0569 24.4206V22.1152C32.0569 19.9304 30.2703 18.1437 28.0854 18.1437C25.9006 18.1437 24.114 19.9304 24.114 22.1152V19.3604C24.114 17.1755 22.3273 15.3889 20.1425 15.3889C17.9577 15.3889 16.171 17.1755 16.171 19.3604V3.97146C16.171 1.78661 14.3844 0 12.1996 0C10.0147 0 8.22813 1.78661 8.22813 3.97146V27.4275L7.2855 26.1707C5.97021 24.4206 3.40538 23.9822 1.58589 25.1952C-0.160523 26.5068 -0.522229 29.0095 0.789411 30.756L13.1714 52.7104C13.8583 53.6238 14.8667 54.1572 15.9263 54.2741C16.2112 54.3034 16.4999 54.3034 16.7848 54.2741H31.5819C34.2892 54.2741 36.7408 52.6885 37.8551 50.2223L39.6271 46.291C39.8646 45.7832 39.9998 45.2132 39.9998 44.6177V24.4206C39.9998 22.2358 38.2132 20.4492 36.0283 20.4492Z" fill="white" style="fill:white;fill-opacity:1;"/>
</svg>
