<svg width="42" height="57" viewBox="0 0 42 57" fill="none" xmlns="http://www.w3.org/2000/svg">
<path fill-rule="evenodd" clip-rule="evenodd" d="M8.26234 4.9051C8.26234 2.20465 10.467 0 13.1674 0C15.8679 0 18.0725 2.20465 18.0725 4.9051V16.5382C18.9142 15.8597 19.983 15.4527 21.1433 15.4527C23.5108 15.4527 25.4973 17.1473 25.9511 19.3849C26.8069 18.6583 27.9136 18.2189 29.1191 18.2189C31.3535 18.2189 33.2485 19.7283 33.836 21.779C34.7037 21.0053 35.8463 20.5339 37.0949 20.5339C39.7954 20.5339 42 22.7386 42 25.439V45.7198C42 46.4545 41.8338 47.1568 41.5424 47.7824L39.7655 51.7245L39.7651 51.7253C38.498 54.5295 35.7097 56.3335 32.6301 56.3335H17.8163C17.4839 56.3643 17.148 56.3627 16.816 56.3287C16.8136 56.3284 16.8113 56.3282 16.809 56.3279C15.5063 56.1842 14.2596 55.5268 13.4103 54.3973C13.3862 54.3652 13.3642 54.3316 13.3444 54.2966L0.939046 32.3007C-0.639074 30.1427 -0.180951 27.0906 1.95896 25.4834C1.97269 25.4731 1.98671 25.4632 2.001 25.4537C3.94159 24.1599 6.55343 24.3945 8.26234 25.8878V4.9051ZM34.0242 25.439C34.0242 23.7517 35.4076 22.3683 37.0949 22.3683C38.7823 22.3683 40.1657 23.7517 40.1657 25.439V45.7198C40.1657 46.1787 40.0615 46.6187 39.8778 47.0116C39.876 47.0154 39.8742 47.0193 39.8725 47.0232L38.0935 50.97C37.1227 53.1186 34.9875 54.4991 32.6301 54.4991H17.7717C17.7405 54.4991 17.7092 54.5007 17.6781 54.5039C17.4553 54.5267 17.2294 54.5268 17.0065 54.5042C16.2003 54.4143 15.439 54.0162 14.9107 53.3396L2.50886 31.3501C2.48923 31.3152 2.46735 31.2818 2.44335 31.2498C1.43711 29.91 1.70716 27.9843 3.04001 26.9657C4.46053 26.0357 6.47544 26.3853 7.49924 27.7467C7.49927 27.7467 7.49929 27.7467 7.49932 27.7468C7.49948 27.747 7.49963 27.7472 7.49979 27.7474L8.44578 29.0087C8.68265 29.3245 9.09504 29.4534 9.46956 29.3285C9.84409 29.2037 10.0967 28.8532 10.0967 28.4584V4.9051C10.0967 3.21774 11.4801 1.83437 13.1674 1.83437C14.8548 1.83437 16.2382 3.21774 16.2382 4.9051V20.3578C16.2382 20.8644 16.6488 21.275 17.1554 21.275C17.6619 21.275 18.0725 20.8644 18.0725 20.3578C18.0725 18.6705 19.4559 17.2871 21.1433 17.2871C22.8306 17.2871 24.214 18.6705 24.214 20.3578V23.1241C24.214 23.6306 24.6246 24.0412 25.1312 24.0412C25.6377 24.0412 26.0484 23.6306 26.0484 23.1241C26.0484 21.4367 27.4318 20.0533 29.1191 20.0533C30.8065 20.0533 32.1898 21.4367 32.1898 23.1241V25.439C32.1898 25.9456 32.6005 26.3562 33.107 26.3562C33.6136 26.3562 34.0242 25.9456 34.0242 25.439Z" fill="#221F20" style="fill:#221F20;fill:color(display-p3 0.1333 0.1216 0.1255);fill-opacity:1;"/>
<path fill-rule="evenodd" clip-rule="evenodd" d="M17.1516 19.4368C17.6581 19.4368 18.0688 19.8474 18.0688 20.354V25.8791C18.0688 26.3856 17.6581 26.7963 17.1516 26.7963C16.645 26.7963 16.2344 26.3856 16.2344 25.8791V20.354C16.2344 19.8474 16.645 19.4368 17.1516 19.4368Z" fill="#221F20" style="fill:#221F20;fill:color(display-p3 0.1333 0.1216 0.1255);fill-opacity:1;"/>
<path fill-rule="evenodd" clip-rule="evenodd" d="M25.1274 22.207C25.634 22.207 26.0446 22.6176 26.0446 23.1242V28.7961C26.0446 29.3026 25.634 29.7132 25.1274 29.7132C24.6209 29.7132 24.2102 29.3026 24.2102 28.7961V23.1242C24.2102 22.6176 24.6209 22.207 25.1274 22.207Z" fill="#221F20" style="fill:#221F20;fill:color(display-p3 0.1333 0.1216 0.1255);fill-opacity:1;"/>
<path fill-rule="evenodd" clip-rule="evenodd" d="M33.1069 24.5222C33.6135 24.5222 34.0241 24.9329 34.0241 25.4394V32.1495C34.0241 32.6561 33.6135 33.0667 33.1069 33.0667C32.6004 33.0667 32.1897 32.6561 32.1897 32.1495V25.4394C32.1897 24.9329 32.6004 24.5222 33.1069 24.5222Z" fill="#221F20" style="fill:#221F20;fill:color(display-p3 0.1333 0.1216 0.1255);fill-opacity:1;"/>
</svg>
